<?xml version="1.0" standalone="no"?><!DOCTYPE svg PUBLIC "-//W3C//DTD SVG 1.1//EN" "http://www.w3.org/Graphics/SVG/1.1/DTD/svg11.dtd"><svg t="1533094141339" class="icon" style="" viewBox="0 0 1024 1024" version="1.1" xmlns="http://www.w3.org/2000/svg" p-id="8256" xmlns:xlink="http://www.w3.org/1999/xlink" width="128" height="128"><defs><style type="text/css"></style></defs><path d="M912 510.6c0 4.3-1.6 8-4.7 11.1L729.6 685.6c-5 4.3-10.3 5.3-16.2 2.8-5.8-2.8-8.8-7.2-8.8-13.4V571.3H126.8c-4.3 0-7.9-1.4-10.6-4.2-2.8-2.8-4.2-6.3-4.2-10.6v-88.9c0-4.3 1.4-7.9 4.2-10.6 2.8-2.8 6.3-4.2 10.6-4.2h577.8V349.1c0-6.5 2.9-10.9 8.8-13.4 5.8-2.4 11.3-1.7 16.2 2.3l177.8 162c3 3.1 4.6 6.6 4.6 10.6z" p-id="8257" fill="#707070"></path></svg>